<svg width="30" height="32" viewBox="0 0 30 32" fill="none" xmlns="http://www.w3.org/2000/svg">
<g id="icon/av/volume_up_24px">
<path id="icon/av/volume_up_24px_2" fill-rule="evenodd" clip-rule="evenodd" d="M17.5001 7.05334V4.30667C22.5126 5.52 26.25 10.2933 26.25 16C26.25 21.7067 22.5126 26.48 17.5001 27.6933V24.9467C21.1126 23.8 23.75 20.2267 23.75 16C23.75 11.7733 21.1126 8.2 17.5001 7.05334ZM3.75 20V12H8.75L15 5.33334V26.6667L8.75 20H3.75ZM12.5001 20.2267V11.7733L9.78755 14.6667H6.25005V17.3333H9.78755L12.5001 20.2267ZM20.6251 16C20.6251 13.64 19.3501 11.6133 17.5001 10.6267V21.36C19.3501 20.3867 20.6251 18.36 20.6251 16Z" fill="#FFFCFC"/>
</g>
</svg>
